<?xml version="1.0" encoding="utf-8"?>
<!-- Generator: Adobe Illustrator 23.0.6, SVG Export Plug-In . SVG Version: 6.00 Build 0)  -->
<svg version="1.1" id="Layer_1" xmlns="http://www.w3.org/2000/svg" xmlns:xlink="http://www.w3.org/1999/xlink" x="0px" y="0px"
	 viewBox="0 0 552 73" style="enable-background:new 0 0 552 73;" xml:space="preserve">
<style type="text/css">
	.st0{fill-rule:evenodd;clip-rule:evenodd;fill:#A22B30;}
	.st1{fill-rule:evenodd;clip-rule:evenodd;fill:#FFFFFE;}
</style>
<g id="Building-Blocks">
	<g id="Logo---Red-Ventures" transform="translate(-70.000000, -562.000000)">
		<g id="Group" transform="translate(70.479000, 562.026000)">
			<path id="Fill-3" class="st0" d="M111.3,36.3c2.8,0,3.6-1.6,3.6-2.8c0-1-0.6-2.7-2.9-2.7h-3.2v5.6H111.3z M124.3,50.8H117
				l-5.4-10.6h-2.8v6.5h3v4.1H99.2v-4.1h3.3V30.7h-3.3v-4.1h15c4.7,0,7.2,3.1,7.2,6.7c0,2.8-1.3,4.7-4.2,6l3.9,7.3h3.1V50.8
				L124.3,50.8z"/>
			<polyline id="Fill-4" class="st0" points="132.6,46.7 135.4,46.7 135.4,30.7 132.6,30.7 132.6,26.6 153.8,26.6 153.8,34.3 
				149.2,34.3 149.2,30.7 141.7,30.7 141.7,36.3 147.7,36.3 147.7,40.4 141.7,40.4 141.7,46.7 149.2,46.7 149.2,43.1 153.8,43.1 
				153.8,50.8 132.6,50.8 132.6,46.7 			"/>
			<path id="Fill-5" class="st0" d="M175.7,46.7c4.8,0,7-3.1,7-7.9c0-5.2-2.6-8.1-7.2-8.1h-2.2v15.9H175.7z M163.3,46.7h3.7V30.7
				h-3.7v-4.1h12.6c4.4,0,7.4,0.8,9.8,3.3c2.4,2.4,3.4,5.5,3.4,8.8c0,6.3-3.9,12-11.5,12h-14.4V46.7L163.3,46.7z"/>
			<polyline id="Fill-6" class="st1" points="213.1,30.7 210.3,30.7 210.3,26.6 222.2,26.6 222.2,30.7 219.4,30.7 223.4,42.8 
				223.5,42.8 227.6,30.7 224.9,30.7 224.9,26.6 235,26.6 235,30.7 232.2,30.7 225.2,50.9 220.3,50.9 213.1,30.7 			"/>
			<polyline id="Fill-7" class="st1" points="243.4,46.7 246.2,46.7 246.2,30.7 243.4,30.7 243.4,26.6 264.6,26.6 264.6,34.3 
				260,34.3 260,30.7 252.5,30.7 252.5,36.3 258.5,36.3 258.5,40.4 252.5,40.4 252.5,46.7 260,46.7 260,43.1 264.6,43.1 264.6,50.8 
				243.4,50.8 243.4,46.7 			"/>
			<polyline id="Fill-8" class="st1" points="273.7,46.7 276.9,46.7 276.9,30.7 273.7,30.7 273.7,26.6 283.8,26.6 292.6,41.7 
				292.7,41.7 292.7,30.7 289.6,30.7 289.6,26.6 300.4,26.6 300.4,30.7 297,30.7 297,50.8 291.6,50.8 281.3,33 281.2,33 281.2,46.7 
				284.2,46.7 284.2,50.8 273.7,50.8 273.7,46.7 			"/>
			<polyline id="Fill-9" class="st1" points="331.2,36.3 327,36.3 327,30.7 323.3,30.7 323.3,46.7 327,46.7 327,50.8 313.4,50.8 
				313.4,46.7 317.1,46.7 317.1,30.7 313.4,30.7 313.4,36.3 309.2,36.3 309.2,26.6 331.2,26.6 331.2,36.3 			"/>
			<path id="Fill-10" class="st1" d="M339.8,26.6h11.2v4.1H349V43c0,2.4,0.7,4,3.1,4c2,0,3.3-1,3.3-3.8V30.7h-2v-4.1h9.3v4.1h-3
				v13.5c0,5.6-4.9,6.8-8.3,6.8c-4.7,0-8.7-1.8-8.7-7.7V30.7h-2.8V26.6"/>
			<path id="Fill-11" class="st1" d="M383.4,36.3c2.8,0,3.6-1.6,3.6-2.8c0-1-0.6-2.7-2.9-2.7h-3.2v5.6H383.4z M396.4,50.8h-7.4
				l-5.4-10.6h-2.8v6.5h3v4.1h-12.6v-4.1h3.3V30.7h-3.3v-4.1h15c4.7,0,7.2,3.1,7.2,6.7c0,2.8-1.4,4.7-4.2,6l3.9,7.3h3.1V50.8
				L396.4,50.8z"/>
			<polyline id="Fill-12" class="st1" points="404.7,46.7 407.5,46.7 407.5,30.7 404.7,30.7 404.7,26.6 425.9,26.6 425.9,34.3 
				421.3,34.3 421.3,30.7 413.8,30.7 413.8,36.3 419.9,36.3 419.9,40.4 413.8,40.4 413.8,46.7 421.3,46.7 421.3,43.1 425.9,43.1 
				425.9,50.8 404.7,50.8 404.7,46.7 			"/>
			<path id="Fill-13" class="st1" d="M435.8,42.6h4.1c-0.1,2.6,1.6,4.4,3.7,4.4c1.5,0,2.7-1.1,2.7-2.6c0-4.4-10.7-3.8-10.7-11.4
				c0-4.7,3.5-6.6,6.5-6.6c1.9,0,3.4,0.7,4.4,2.2h0.1v-2h4V34h-4c-0.3-2.2-1.6-3.6-3.5-3.6c-1.4,0-2.4,0.8-2.4,2
				c0,3.9,11.1,3,11.1,11.5c0,5.8-4.4,7.2-7,7.2c-2.1,0-3.8-0.8-4.8-2.3h-0.1v2h-4.1V42.6"/>
			<polygon id="Fill-14" class="st1" points="198.8,59.7 200.2,59.7 200.2,13.1 198.8,13.1 			"/>
		</g>
	</g>
</g>
</svg>
