<?xml version="1.0" encoding="utf-8"?>
<!-- Generator: Adobe Illustrator 23.0.6, SVG Export Plug-In . SVG Version: 6.00 Build 0)  -->
<svg version="1.1" id="Layer_1" xmlns="http://www.w3.org/2000/svg" xmlns:xlink="http://www.w3.org/1999/xlink" x="0px" y="0px"
	 viewBox="0 0 200 26" style="enable-background:new 0 0 200 26;" xml:space="preserve">
<style type="text/css">
	.st0{fill-rule:evenodd;clip-rule:evenodd;fill:#E34949;}
	.st1{fill-rule:evenodd;clip-rule:evenodd;}
	.st2{filter:url(#Adobe_OpacityMaskFilter);}
	.st3{fill-rule:evenodd;clip-rule:evenodd;fill:#FFFFFF;}
	.st4{mask:url(#mask-2_1_);fill-rule:evenodd;clip-rule:evenodd;}
</style>
<title>LOGO Copy</title>
<desc>Created with Sketch.</desc>
<g id="Page-1">
	<g id="Jobs-home" transform="translate(-40.000000, -40.000000)">
		<g id="nav" transform="translate(40.000000, 40.000000)">
			<g id="LOGO-Copy">
				<g id="logo-copy" transform="translate(0.000000, 5.000000)">
					<path id="Fill-1" class="st0" d="M40.3,7.3c1,0,1.3-0.6,1.3-1c0-0.4-0.2-1-1.1-1h-1.2v2H40.3L40.3,7.3z M45,12.5h-2.7l-2-3.8
						h-1V11h1.1v1.5h-4.6V11h1.2V5.3h-1.2V3.9h5.4C43.1,3.9,44,5,44,6.3c0,1-0.5,1.7-1.5,2.1l1.4,2.6H45V12.5L45,12.5z"/>
					<polygon id="Fill-3" class="st0" points="48,11 49.1,11 49.1,5.3 48,5.3 48,3.9 55.7,3.9 55.7,6.6 54,6.6 54,5.3 51.3,5.3 
						51.3,7.3 53.5,7.3 53.5,8.8 51.3,8.8 51.3,11 54,11 54,9.7 55.7,9.7 55.7,12.5 48,12.5 					"/>
					<path id="Fill-5" class="st0" d="M63.6,11c1.7,0,2.5-1.1,2.5-2.8c0-1.9-0.9-2.9-2.6-2.9h-0.8V11H63.6z M59.2,11h1.3V5.3h-1.3
						V3.9h4.6c1.6,0,2.7,0.3,3.6,1.2c0.9,0.9,1.2,2,1.2,3.2c0,2.2-1.4,4.3-4.2,4.3h-5.2V11z"/>
					<polygon id="Fill-7" class="st1" points="77.2,5.3 76.2,5.3 76.2,3.9 80.5,3.9 80.5,5.3 79.5,5.3 80.9,9.6 82.4,5.3 81.5,5.3 
						81.5,3.9 85.1,3.9 85.1,5.3 84.1,5.3 81.6,12.5 79.8,12.5 					"/>
					<polygon id="Fill-9" class="st1" points="88.2,11 89.2,11 89.2,5.3 88.2,5.3 88.2,3.9 95.8,3.9 95.8,6.6 94.2,6.6 94.2,5.3 
						91.5,5.3 91.5,7.3 93.6,7.3 93.6,8.8 91.5,8.8 91.5,11 94.2,11 94.2,9.7 95.8,9.7 95.8,12.5 88.2,12.5 					"/>
					<polygon id="Fill-11" class="st1" points="99.1,11 100.3,11 100.3,5.3 99.1,5.3 99.1,3.9 102.8,3.9 106,9.2 106,9.2 106,5.3 
						104.9,5.3 104.9,3.9 108.8,3.9 108.8,5.3 107.6,5.3 107.6,12.5 105.6,12.5 101.9,6.1 101.9,6.1 101.9,11 103,11 103,12.5 
						99.1,12.5 					"/>
					<polygon id="Fill-13" class="st1" points="120,7.3 118.4,7.3 118.4,5.3 117.1,5.3 117.1,11 118.4,11 118.4,12.5 113.5,12.5 
						113.5,11 114.9,11 114.9,5.3 113.5,5.3 113.5,7.3 112,7.3 112,3.9 120,3.9 					"/>
					<path id="Fill-15" class="st1" d="M123.1,3.9h4.1v1.5h-0.8v4.4c0,0.8,0.3,1.4,1.1,1.4c0.7,0,1.2-0.4,1.2-1.3V5.3H128V3.9h3.4
						v1.5h-1.1v4.8c0,2-1.8,2.4-3,2.4c-1.7,0-3.2-0.6-3.2-2.8V5.3h-1V3.9z"/>
					<path id="Fill-17" class="st1" d="M138.9,7.3c1,0,1.3-0.6,1.3-1c0-0.4-0.2-1-1.1-1H138v2H138.9z M143.6,12.5h-2.7l-2-3.8h-1V11
						h1.1v1.5h-4.6V11h1.2V5.3h-1.2V3.9h5.4c1.7,0,2.6,1.1,2.6,2.4c0,1-0.5,1.7-1.5,2.1l1.4,2.6h1.1V12.5z"/>
					<polygon id="Fill-19" class="st1" points="146.6,11 147.6,11 147.6,5.3 146.6,5.3 146.6,3.9 154.3,3.9 154.3,6.6 152.6,6.6 
						152.6,5.3 149.9,5.3 149.9,7.3 152.1,7.3 152.1,8.8 149.9,8.8 149.9,11 152.6,11 152.6,9.7 154.3,9.7 154.3,12.5 146.6,12.5 
											"/>
					<g id="Group-23" transform="translate(190.029326, 0.907391)">
						<g id="Clip-22">
						</g>
						<defs>
							<filter id="Adobe_OpacityMaskFilter" filterUnits="userSpaceOnUse" x="-32.2" y="2.9" width="5.9" height="8.8">
								<feColorMatrix  type="matrix" values="1 0 0 0 0  0 1 0 0 0  0 0 1 0 0  0 0 0 1 0"/>
							</filter>
						</defs>
						<mask maskUnits="userSpaceOnUse" x="-32.2" y="2.9" width="5.9" height="8.8" id="mask-2_1_">
							<g class="st2">
								<polygon id="path-1_1_" class="st3" points="-26.4,11.7 -26.4,2.9 -32.2,2.9 -32.2,11.7 								"/>
							</g>
						</mask>
						<path id="Fill-21" class="st4" d="M-32.1,8.6h1.5c0,0.9,0.6,1.6,1.3,1.6c0.5,0,1-0.4,1-0.9c0-1.6-3.9-1.4-3.9-4.1
							c0-1.7,1.3-2.3,2.4-2.3c0.7,0,1.2,0.3,1.6,0.8h0V3h1.5v2.6h-1.5c-0.1-0.8-0.6-1.3-1.3-1.3c-0.5,0-0.9,0.3-0.9,0.7
							c0,1.4,4,1.1,4,4.1c0,2.1-1.6,2.6-2.5,2.6c-0.8,0-1.4-0.3-1.8-0.8h0v0.7h-1.5V8.6z"/>
					</g>
				</g>
				<polygon id="Fill-24" class="st1" points="72,21.3 72.5,21.3 72.5,4.7 72,4.7 				"/>
			</g>
		</g>
	</g>
</g>
</svg>
